<?xml version="1.0" encoding="iso-8859-1"?>
<!-- Generator: Adobe Illustrator 19.0.0, SVG Export Plug-In . SVG Version: 6.00 Build 0)  -->
<svg version="1.1" id="Layer_1" xmlns="http://www.w3.org/2000/svg" xmlns:xlink="http://www.w3.org/1999/xlink" x="0px" y="0px"
	 viewBox="0 0 512 512" style="enable-background:new 0 0 512 512;" xml:space="preserve">
<g>
	<path style="fill:#424A60;" d="M388.529,512H123.463c-24.311,0-44.014-19.712-44.014-44.023V44.023
		C79.448,19.712,99.151,0,123.463,0h265.066c24.311,0,44.023,19.712,44.023,44.023v423.954C432.552,492.288,412.84,512,388.529,512"
		/>
	<path style="fill:#74972F;" d="M114.755,194.207h282.483V35.31H114.755V194.207z"/>
	<g>
		<path style="fill:#7383BF;" d="M174.465,264.828h-31.144c-6.029,0-10.911-4.882-10.911-10.911v-13.489
			c0-6.029,4.882-10.911,10.911-10.911h31.144c6.029,0,10.911,4.882,10.911,10.911v13.489
			C185.376,259.946,180.494,264.828,174.465,264.828"/>
		<path style="fill:#7383BF;" d="M271.568,264.828h-31.144c-6.029,0-10.911-4.882-10.911-10.911v-13.489
			c0-6.029,4.882-10.911,10.911-10.911h31.144c6.029,0,10.911,4.882,10.911,10.911v13.489
			C282.479,259.946,277.598,264.828,271.568,264.828"/>
		<path style="fill:#7383BF;" d="M368.672,264.828h-31.144c-6.029,0-10.911-4.882-10.911-10.911v-13.489
			c0-6.029,4.882-10.911,10.911-10.911h31.144c6.029,0,10.911,4.882,10.911,10.911v13.489
			C379.583,259.946,374.701,264.828,368.672,264.828"/>
		<path style="fill:#7383BF;" d="M368.672,335.448h-31.144c-6.029,0-10.911-4.882-10.911-10.911v-13.489
			c0-6.029,4.882-10.911,10.911-10.911h31.144c6.029,0,10.911,4.882,10.911,10.911v13.489
			C379.583,330.567,374.701,335.448,368.672,335.448"/>
		<path style="fill:#7383BF;" d="M271.568,335.448h-31.144c-6.029,0-10.911-4.882-10.911-10.911v-13.489
			c0-6.029,4.882-10.911,10.911-10.911h31.144c6.029,0,10.911,4.882,10.911,10.911v13.489
			C282.479,330.567,277.598,335.448,271.568,335.448"/>
		<path style="fill:#7383BF;" d="M174.465,335.448h-31.144c-6.029,0-10.911-4.882-10.911-10.911v-13.489
			c0-6.029,4.882-10.911,10.911-10.911h31.144c6.029,0,10.911,4.882,10.911,10.911v13.489
			C185.376,330.567,180.494,335.448,174.465,335.448"/>
		<path style="fill:#7383BF;" d="M174.465,406.069h-31.144c-6.029,0-10.911-4.882-10.911-10.911v-13.489
			c0-6.029,4.882-10.911,10.911-10.911h31.144c6.029,0,10.911,4.882,10.911,10.911v13.489
			C185.376,401.187,180.494,406.069,174.465,406.069"/>
		<path style="fill:#7383BF;" d="M271.568,406.069h-31.144c-6.029,0-10.911-4.882-10.911-10.911v-13.489
			c0-6.029,4.882-10.911,10.911-10.911h31.144c6.029,0,10.911,4.882,10.911,10.911v13.489
			C282.479,401.187,277.598,406.069,271.568,406.069"/>
		<path style="fill:#7383BF;" d="M368.672,406.069h-31.144c-6.029,0-10.911-4.882-10.911-10.911v-13.489
			c0-6.029,4.882-10.911,10.911-10.911h31.144c6.029,0,10.911,4.882,10.911,10.911v13.489
			C379.583,401.187,374.701,406.069,368.672,406.069"/>
		<path style="fill:#7383BF;" d="M368.672,476.69h-31.144c-6.029,0-10.911-4.882-10.911-10.911V452.29
			c0-6.029,4.882-10.911,10.911-10.911h31.144c6.029,0,10.911,4.882,10.911,10.911v13.489
			C379.583,471.808,374.701,476.69,368.672,476.69"/>
		<path style="fill:#7383BF;" d="M271.568,476.69h-31.144c-6.029,0-10.911-4.882-10.911-10.911V452.29
			c0-6.029,4.882-10.911,10.911-10.911h31.144c6.029,0,10.911,4.882,10.911,10.911v13.489
			C282.479,471.808,277.598,476.69,271.568,476.69"/>
		<path style="fill:#7383BF;" d="M174.465,476.69h-31.144c-6.029,0-10.911-4.882-10.911-10.911V452.29
			c0-6.029,4.882-10.911,10.911-10.911h31.144c6.029,0,10.911,4.882,10.911,10.911v13.489
			C185.376,471.808,180.494,476.69,174.465,476.69"/>
	</g>
	<g>
		<path style="fill:#577019;" d="M235.122,88.276c-3.09,0-5.606,2.516-5.606,5.614v41.737c0,3.098,2.516,5.614,5.606,5.614h6.435
			c3.098,0,5.614-2.516,5.614-5.614V93.89c0-3.098-2.516-5.614-5.614-5.614H235.122z M241.557,158.897h-6.435
			c-12.826,0-23.261-10.443-23.261-23.27V93.89c0-12.826,10.434-23.27,23.261-23.27h6.435c12.835,0,23.27,10.443,23.27,23.27v41.737
			C264.827,148.454,254.392,158.897,241.557,158.897L241.557,158.897z"/>
		<path style="fill:#577019;" d="M341.053,88.276c-3.09,0-5.605,2.516-5.605,5.614v41.737c0,3.098,2.516,5.614,5.605,5.614h6.435
			c3.098,0,5.614-2.516,5.614-5.614V93.89c0-3.098-2.516-5.614-5.614-5.614H341.053z M347.488,158.897h-6.435
			c-12.826,0-23.261-10.443-23.261-23.27V93.89c0-12.826,10.434-23.27,23.261-23.27h6.435c12.835,0,23.27,10.443,23.27,23.27v41.737
			C370.758,148.454,360.324,158.897,347.488,158.897L347.488,158.897z"/>
		<path style="fill:#577019;" d="M300.134,150.069c0,4.873-3.955,8.828-8.828,8.828c-4.873,0-8.828-3.955-8.828-8.828
			c0-4.873,3.955-8.828,8.828-8.828C296.18,141.241,300.134,145.196,300.134,150.069"/>
		<path style="fill:#577019;" d="M158.893,114.759c-2.26,0-4.52-0.865-6.241-2.586c-3.452-3.452-3.452-9.031,0-12.482l26.483-26.483
			c3.452-3.452,9.031-3.452,12.482,0c3.452,3.452,3.452,9.031,0,12.482l-26.483,26.483
			C163.413,113.894,161.153,114.759,158.893,114.759"/>
		<path style="fill:#577019;" d="M185.376,158.897c-4.873,0-8.828-3.946-8.828-8.828V79.448c0-4.882,3.955-8.828,8.828-8.828
			c4.873,0,8.828,3.946,8.828,8.828v70.621C194.203,154.951,190.249,158.897,185.376,158.897"/>
	</g>
</g>
<g>
</g>
<g>
</g>
<g>
</g>
<g>
</g>
<g>
</g>
<g>
</g>
<g>
</g>
<g>
</g>
<g>
</g>
<g>
</g>
<g>
</g>
<g>
</g>
<g>
</g>
<g>
</g>
<g>
</g>
</svg>
